<mxfile host="app.diagrams.net" agent="Mozilla/5.0 (Windows NT 10.0; Win64; x64) AppleWebKit/537.36 (KHTML, like Gecko) Chrome/129.0.0.0 Safari/537.36" version="24.7.17">
  <diagram name="Page-1" id="Tr5Vae6bYQqe22U8ZDb8">
    <mxGraphModel dx="1050" dy="522" grid="0" gridSize="10" guides="1" tooltips="1" connect="1" arrows="1" fold="1" page="1" pageScale="1" pageWidth="850" pageHeight="1100" math="0" shadow="0">
      <root>
        <mxCell id="0" />
        <mxCell id="1" parent="0" />
        <mxCell id="IRUcURE-Obj1KCZxDmtH-1" value="Database Table" style="shape=table;startSize=30;container=1;collapsible=0;childLayout=tableLayout;strokeColor=#82b366;fontSize=16;fillColor=#d5e8d4;" vertex="1" parent="1">
          <mxGeometry x="96" y="226" width="390" height="130" as="geometry" />
        </mxCell>
        <mxCell id="IRUcURE-Obj1KCZxDmtH-2" value="" style="shape=tableRow;horizontal=0;startSize=0;swimlaneHead=0;swimlaneBody=0;strokeColor=inherit;top=0;left=0;bottom=0;right=0;collapsible=0;dropTarget=0;fillColor=none;points=[[0,0.5],[1,0.5]];portConstraint=eastwest;fontSize=16;" vertex="1" parent="IRUcURE-Obj1KCZxDmtH-1">
          <mxGeometry y="30" width="390" height="33" as="geometry" />
        </mxCell>
        <mxCell id="IRUcURE-Obj1KCZxDmtH-3" value="Timestamp" style="shape=partialRectangle;html=1;whiteSpace=wrap;connectable=0;strokeColor=inherit;overflow=hidden;fillColor=none;top=0;left=0;bottom=0;right=0;pointerEvents=1;fontSize=16;" vertex="1" parent="IRUcURE-Obj1KCZxDmtH-2">
          <mxGeometry width="130" height="33" as="geometry">
            <mxRectangle width="130" height="33" as="alternateBounds" />
          </mxGeometry>
        </mxCell>
        <mxCell id="IRUcURE-Obj1KCZxDmtH-4" value="Lat" style="shape=partialRectangle;html=1;whiteSpace=wrap;connectable=0;strokeColor=inherit;overflow=hidden;fillColor=none;top=0;left=0;bottom=0;right=0;pointerEvents=1;fontSize=16;" vertex="1" parent="IRUcURE-Obj1KCZxDmtH-2">
          <mxGeometry x="130" width="130" height="33" as="geometry">
            <mxRectangle width="130" height="33" as="alternateBounds" />
          </mxGeometry>
        </mxCell>
        <mxCell id="IRUcURE-Obj1KCZxDmtH-5" value="Long" style="shape=partialRectangle;html=1;whiteSpace=wrap;connectable=0;strokeColor=inherit;overflow=hidden;fillColor=none;top=0;left=0;bottom=0;right=0;pointerEvents=1;fontSize=16;" vertex="1" parent="IRUcURE-Obj1KCZxDmtH-2">
          <mxGeometry x="260" width="130" height="33" as="geometry">
            <mxRectangle width="130" height="33" as="alternateBounds" />
          </mxGeometry>
        </mxCell>
        <mxCell id="IRUcURE-Obj1KCZxDmtH-6" value="" style="shape=tableRow;horizontal=0;startSize=0;swimlaneHead=0;swimlaneBody=0;strokeColor=inherit;top=0;left=0;bottom=0;right=0;collapsible=0;dropTarget=0;fillColor=none;points=[[0,0.5],[1,0.5]];portConstraint=eastwest;fontSize=16;" vertex="1" parent="IRUcURE-Obj1KCZxDmtH-1">
          <mxGeometry y="63" width="390" height="34" as="geometry" />
        </mxCell>
        <mxCell id="IRUcURE-Obj1KCZxDmtH-7" value="" style="shape=partialRectangle;html=1;whiteSpace=wrap;connectable=0;strokeColor=inherit;overflow=hidden;fillColor=none;top=0;left=0;bottom=0;right=0;pointerEvents=1;fontSize=16;" vertex="1" parent="IRUcURE-Obj1KCZxDmtH-6">
          <mxGeometry width="130" height="34" as="geometry">
            <mxRectangle width="130" height="34" as="alternateBounds" />
          </mxGeometry>
        </mxCell>
        <mxCell id="IRUcURE-Obj1KCZxDmtH-8" value="" style="shape=partialRectangle;html=1;whiteSpace=wrap;connectable=0;strokeColor=inherit;overflow=hidden;fillColor=none;top=0;left=0;bottom=0;right=0;pointerEvents=1;fontSize=16;" vertex="1" parent="IRUcURE-Obj1KCZxDmtH-6">
          <mxGeometry x="130" width="130" height="34" as="geometry">
            <mxRectangle width="130" height="34" as="alternateBounds" />
          </mxGeometry>
        </mxCell>
        <mxCell id="IRUcURE-Obj1KCZxDmtH-9" value="" style="shape=partialRectangle;html=1;whiteSpace=wrap;connectable=0;strokeColor=inherit;overflow=hidden;fillColor=none;top=0;left=0;bottom=0;right=0;pointerEvents=1;fontSize=16;" vertex="1" parent="IRUcURE-Obj1KCZxDmtH-6">
          <mxGeometry x="260" width="130" height="34" as="geometry">
            <mxRectangle width="130" height="34" as="alternateBounds" />
          </mxGeometry>
        </mxCell>
        <mxCell id="IRUcURE-Obj1KCZxDmtH-10" value="" style="shape=tableRow;horizontal=0;startSize=0;swimlaneHead=0;swimlaneBody=0;strokeColor=inherit;top=0;left=0;bottom=0;right=0;collapsible=0;dropTarget=0;fillColor=none;points=[[0,0.5],[1,0.5]];portConstraint=eastwest;fontSize=16;" vertex="1" parent="IRUcURE-Obj1KCZxDmtH-1">
          <mxGeometry y="97" width="390" height="33" as="geometry" />
        </mxCell>
        <mxCell id="IRUcURE-Obj1KCZxDmtH-11" value="" style="shape=partialRectangle;html=1;whiteSpace=wrap;connectable=0;strokeColor=inherit;overflow=hidden;fillColor=none;top=0;left=0;bottom=0;right=0;pointerEvents=1;fontSize=16;" vertex="1" parent="IRUcURE-Obj1KCZxDmtH-10">
          <mxGeometry width="130" height="33" as="geometry">
            <mxRectangle width="130" height="33" as="alternateBounds" />
          </mxGeometry>
        </mxCell>
        <mxCell id="IRUcURE-Obj1KCZxDmtH-12" value="" style="shape=partialRectangle;html=1;whiteSpace=wrap;connectable=0;strokeColor=inherit;overflow=hidden;fillColor=none;top=0;left=0;bottom=0;right=0;pointerEvents=1;fontSize=16;" vertex="1" parent="IRUcURE-Obj1KCZxDmtH-10">
          <mxGeometry x="130" width="130" height="33" as="geometry">
            <mxRectangle width="130" height="33" as="alternateBounds" />
          </mxGeometry>
        </mxCell>
        <mxCell id="IRUcURE-Obj1KCZxDmtH-13" value="" style="shape=partialRectangle;html=1;whiteSpace=wrap;connectable=0;strokeColor=inherit;overflow=hidden;fillColor=none;top=0;left=0;bottom=0;right=0;pointerEvents=1;fontSize=16;" vertex="1" parent="IRUcURE-Obj1KCZxDmtH-10">
          <mxGeometry x="260" width="130" height="33" as="geometry">
            <mxRectangle width="130" height="33" as="alternateBounds" />
          </mxGeometry>
        </mxCell>
        <mxCell id="IRUcURE-Obj1KCZxDmtH-14" value="Flask Script" style="image;aspect=fixed;html=1;points=[];align=center;fontSize=12;image=img/lib/azure2/app_services/API_Management_Services.svg;" vertex="1" parent="1">
          <mxGeometry x="376" y="76" width="65" height="60" as="geometry" />
        </mxCell>
        <mxCell id="IRUcURE-Obj1KCZxDmtH-15" value="Map Page" style="verticalLabelPosition=bottom;shadow=0;dashed=0;align=center;html=1;verticalAlign=top;strokeWidth=1;shape=mxgraph.mockup.misc.map;" vertex="1" parent="1">
          <mxGeometry x="536" y="25" width="240" height="170" as="geometry" />
        </mxCell>
        <mxCell id="IRUcURE-Obj1KCZxDmtH-16" style="edgeStyle=orthogonalEdgeStyle;rounded=0;orthogonalLoop=1;jettySize=auto;html=1;entryX=-0.012;entryY=0.573;entryDx=0;entryDy=0;entryPerimeter=0;" edge="1" parent="1" source="IRUcURE-Obj1KCZxDmtH-1" target="IRUcURE-Obj1KCZxDmtH-14">
          <mxGeometry relative="1" as="geometry" />
        </mxCell>
        <mxCell id="IRUcURE-Obj1KCZxDmtH-17" style="edgeStyle=orthogonalEdgeStyle;rounded=0;orthogonalLoop=1;jettySize=auto;html=1;entryX=0;entryY=0.478;entryDx=0;entryDy=0;entryPerimeter=0;" edge="1" parent="1" source="IRUcURE-Obj1KCZxDmtH-14" target="IRUcURE-Obj1KCZxDmtH-15">
          <mxGeometry relative="1" as="geometry" />
        </mxCell>
        <mxCell id="IRUcURE-Obj1KCZxDmtH-18" value="Database Table" style="shape=table;startSize=30;container=1;collapsible=0;childLayout=tableLayout;strokeColor=#82b366;fontSize=16;fillColor=#d5e8d4;" vertex="1" parent="1">
          <mxGeometry x="232.5" y="687" width="390" height="130" as="geometry" />
        </mxCell>
        <mxCell id="IRUcURE-Obj1KCZxDmtH-19" value="" style="shape=tableRow;horizontal=0;startSize=0;swimlaneHead=0;swimlaneBody=0;strokeColor=inherit;top=0;left=0;bottom=0;right=0;collapsible=0;dropTarget=0;fillColor=none;points=[[0,0.5],[1,0.5]];portConstraint=eastwest;fontSize=16;" vertex="1" parent="IRUcURE-Obj1KCZxDmtH-18">
          <mxGeometry y="30" width="390" height="33" as="geometry" />
        </mxCell>
        <mxCell id="IRUcURE-Obj1KCZxDmtH-20" value="Timestamp" style="shape=partialRectangle;html=1;whiteSpace=wrap;connectable=0;strokeColor=inherit;overflow=hidden;fillColor=none;top=0;left=0;bottom=0;right=0;pointerEvents=1;fontSize=16;" vertex="1" parent="IRUcURE-Obj1KCZxDmtH-19">
          <mxGeometry width="130" height="33" as="geometry">
            <mxRectangle width="130" height="33" as="alternateBounds" />
          </mxGeometry>
        </mxCell>
        <mxCell id="IRUcURE-Obj1KCZxDmtH-21" value="Lat" style="shape=partialRectangle;html=1;whiteSpace=wrap;connectable=0;strokeColor=inherit;overflow=hidden;fillColor=none;top=0;left=0;bottom=0;right=0;pointerEvents=1;fontSize=16;" vertex="1" parent="IRUcURE-Obj1KCZxDmtH-19">
          <mxGeometry x="130" width="130" height="33" as="geometry">
            <mxRectangle width="130" height="33" as="alternateBounds" />
          </mxGeometry>
        </mxCell>
        <mxCell id="IRUcURE-Obj1KCZxDmtH-22" value="Long" style="shape=partialRectangle;html=1;whiteSpace=wrap;connectable=0;strokeColor=inherit;overflow=hidden;fillColor=none;top=0;left=0;bottom=0;right=0;pointerEvents=1;fontSize=16;" vertex="1" parent="IRUcURE-Obj1KCZxDmtH-19">
          <mxGeometry x="260" width="130" height="33" as="geometry">
            <mxRectangle width="130" height="33" as="alternateBounds" />
          </mxGeometry>
        </mxCell>
        <mxCell id="IRUcURE-Obj1KCZxDmtH-23" value="" style="shape=tableRow;horizontal=0;startSize=0;swimlaneHead=0;swimlaneBody=0;strokeColor=inherit;top=0;left=0;bottom=0;right=0;collapsible=0;dropTarget=0;fillColor=none;points=[[0,0.5],[1,0.5]];portConstraint=eastwest;fontSize=16;" vertex="1" parent="IRUcURE-Obj1KCZxDmtH-18">
          <mxGeometry y="63" width="390" height="34" as="geometry" />
        </mxCell>
        <mxCell id="IRUcURE-Obj1KCZxDmtH-24" value="" style="shape=partialRectangle;html=1;whiteSpace=wrap;connectable=0;strokeColor=inherit;overflow=hidden;fillColor=none;top=0;left=0;bottom=0;right=0;pointerEvents=1;fontSize=16;" vertex="1" parent="IRUcURE-Obj1KCZxDmtH-23">
          <mxGeometry width="130" height="34" as="geometry">
            <mxRectangle width="130" height="34" as="alternateBounds" />
          </mxGeometry>
        </mxCell>
        <mxCell id="IRUcURE-Obj1KCZxDmtH-25" value="" style="shape=partialRectangle;html=1;whiteSpace=wrap;connectable=0;strokeColor=inherit;overflow=hidden;fillColor=none;top=0;left=0;bottom=0;right=0;pointerEvents=1;fontSize=16;" vertex="1" parent="IRUcURE-Obj1KCZxDmtH-23">
          <mxGeometry x="130" width="130" height="34" as="geometry">
            <mxRectangle width="130" height="34" as="alternateBounds" />
          </mxGeometry>
        </mxCell>
        <mxCell id="IRUcURE-Obj1KCZxDmtH-26" value="" style="shape=partialRectangle;html=1;whiteSpace=wrap;connectable=0;strokeColor=inherit;overflow=hidden;fillColor=none;top=0;left=0;bottom=0;right=0;pointerEvents=1;fontSize=16;" vertex="1" parent="IRUcURE-Obj1KCZxDmtH-23">
          <mxGeometry x="260" width="130" height="34" as="geometry">
            <mxRectangle width="130" height="34" as="alternateBounds" />
          </mxGeometry>
        </mxCell>
        <mxCell id="IRUcURE-Obj1KCZxDmtH-27" value="" style="shape=tableRow;horizontal=0;startSize=0;swimlaneHead=0;swimlaneBody=0;strokeColor=inherit;top=0;left=0;bottom=0;right=0;collapsible=0;dropTarget=0;fillColor=none;points=[[0,0.5],[1,0.5]];portConstraint=eastwest;fontSize=16;" vertex="1" parent="IRUcURE-Obj1KCZxDmtH-18">
          <mxGeometry y="97" width="390" height="33" as="geometry" />
        </mxCell>
        <mxCell id="IRUcURE-Obj1KCZxDmtH-28" value="" style="shape=partialRectangle;html=1;whiteSpace=wrap;connectable=0;strokeColor=inherit;overflow=hidden;fillColor=none;top=0;left=0;bottom=0;right=0;pointerEvents=1;fontSize=16;" vertex="1" parent="IRUcURE-Obj1KCZxDmtH-27">
          <mxGeometry width="130" height="33" as="geometry">
            <mxRectangle width="130" height="33" as="alternateBounds" />
          </mxGeometry>
        </mxCell>
        <mxCell id="IRUcURE-Obj1KCZxDmtH-29" value="" style="shape=partialRectangle;html=1;whiteSpace=wrap;connectable=0;strokeColor=inherit;overflow=hidden;fillColor=none;top=0;left=0;bottom=0;right=0;pointerEvents=1;fontSize=16;" vertex="1" parent="IRUcURE-Obj1KCZxDmtH-27">
          <mxGeometry x="130" width="130" height="33" as="geometry">
            <mxRectangle width="130" height="33" as="alternateBounds" />
          </mxGeometry>
        </mxCell>
        <mxCell id="IRUcURE-Obj1KCZxDmtH-30" value="" style="shape=partialRectangle;html=1;whiteSpace=wrap;connectable=0;strokeColor=inherit;overflow=hidden;fillColor=none;top=0;left=0;bottom=0;right=0;pointerEvents=1;fontSize=16;" vertex="1" parent="IRUcURE-Obj1KCZxDmtH-27">
          <mxGeometry x="260" width="130" height="33" as="geometry">
            <mxRectangle width="130" height="33" as="alternateBounds" />
          </mxGeometry>
        </mxCell>
        <mxCell id="IRUcURE-Obj1KCZxDmtH-39" style="edgeStyle=orthogonalEdgeStyle;rounded=0;orthogonalLoop=1;jettySize=auto;html=1;entryX=0.5;entryY=0;entryDx=0;entryDy=0;" edge="1" parent="1" source="IRUcURE-Obj1KCZxDmtH-31" target="IRUcURE-Obj1KCZxDmtH-18">
          <mxGeometry relative="1" as="geometry" />
        </mxCell>
        <mxCell id="IRUcURE-Obj1KCZxDmtH-31" value="Flask Script" style="image;aspect=fixed;html=1;points=[];align=center;fontSize=12;image=img/lib/azure2/app_services/API_Management_Services.svg;" vertex="1" parent="1">
          <mxGeometry x="395" y="480" width="65" height="60" as="geometry" />
        </mxCell>
        <mxCell id="IRUcURE-Obj1KCZxDmtH-32" value="Map Page" style="verticalLabelPosition=bottom;shadow=0;dashed=0;align=center;html=1;verticalAlign=top;strokeWidth=1;shape=mxgraph.mockup.misc.map;" vertex="1" parent="1">
          <mxGeometry x="584" y="428" width="240" height="170" as="geometry" />
        </mxCell>
        <mxCell id="IRUcURE-Obj1KCZxDmtH-34" style="edgeStyle=orthogonalEdgeStyle;rounded=0;orthogonalLoop=1;jettySize=auto;html=1;entryX=0;entryY=0.478;entryDx=0;entryDy=0;entryPerimeter=0;" edge="1" parent="1" source="IRUcURE-Obj1KCZxDmtH-31" target="IRUcURE-Obj1KCZxDmtH-32">
          <mxGeometry relative="1" as="geometry" />
        </mxCell>
        <mxCell id="IRUcURE-Obj1KCZxDmtH-37" style="edgeStyle=orthogonalEdgeStyle;rounded=0;orthogonalLoop=1;jettySize=auto;html=1;entryX=0;entryY=0.5;entryDx=0;entryDy=0;" edge="1" parent="1" source="IRUcURE-Obj1KCZxDmtH-35" target="IRUcURE-Obj1KCZxDmtH-36">
          <mxGeometry relative="1" as="geometry" />
        </mxCell>
        <mxCell id="IRUcURE-Obj1KCZxDmtH-35" value="" style="shape=image;verticalLabelPosition=bottom;labelBackgroundColor=default;verticalAlign=top;aspect=fixed;imageAspect=0;image=https://cdn.worldvectorlogo.com/logos/postman.svg;" vertex="1" parent="1">
          <mxGeometry x="107" y="469" width="81.5" height="81.5" as="geometry" />
        </mxCell>
        <mxCell id="IRUcURE-Obj1KCZxDmtH-36" value="&lt;font style=&quot;font-size: 18px;&quot;&gt;API&lt;/font&gt;" style="rounded=1;whiteSpace=wrap;html=1;fillColor=#dae8fc;strokeColor=#6c8ebf;" vertex="1" parent="1">
          <mxGeometry x="258" y="492.5" width="83" height="35" as="geometry" />
        </mxCell>
        <mxCell id="IRUcURE-Obj1KCZxDmtH-38" style="edgeStyle=orthogonalEdgeStyle;rounded=0;orthogonalLoop=1;jettySize=auto;html=1;entryX=0.041;entryY=0.492;entryDx=0;entryDy=0;entryPerimeter=0;" edge="1" parent="1" source="IRUcURE-Obj1KCZxDmtH-36" target="IRUcURE-Obj1KCZxDmtH-31">
          <mxGeometry relative="1" as="geometry" />
        </mxCell>
        <mxCell id="IRUcURE-Obj1KCZxDmtH-40" value="&lt;b&gt;1. Display in real-time&lt;/b&gt;" style="text;html=1;align=center;verticalAlign=middle;whiteSpace=wrap;rounded=0;" vertex="1" parent="1">
          <mxGeometry x="456" y="480" width="126" height="30" as="geometry" />
        </mxCell>
        <mxCell id="IRUcURE-Obj1KCZxDmtH-41" value="&lt;b&gt;2. Store as history data&lt;/b&gt;" style="text;html=1;align=center;verticalAlign=middle;whiteSpace=wrap;rounded=0;" vertex="1" parent="1">
          <mxGeometry x="326" y="610" width="99" height="30" as="geometry" />
        </mxCell>
      </root>
    </mxGraphModel>
  </diagram>
</mxfile>
